<?xml version="1.0" encoding="utf-8"?>
<!-- Generator: Adobe Illustrator 16.0.2, SVG Export Plug-In . SVG Version: 6.00 Build 0)  -->
<!DOCTYPE svg PUBLIC "-//W3C//DTD SVG 1.1//EN" "http://www.w3.org/Graphics/SVG/1.1/DTD/svg11.dtd">
<svg version="1.1" id="Layer_1" xmlns="http://www.w3.org/2000/svg" xmlns:xlink="http://www.w3.org/1999/xlink" x="0px" y="0px"
	 width="566.93px" height="283.46px" viewBox="0 0 566.93 283.46" enable-background="new 0 0 566.93 283.46" xml:space="preserve">
<rect display="none" width="566.93" height="283.46"/>
<g>
	<path fill="#F9F9F9" d="M157.513,154.994v-51.54h26.543c4.922,0,8.684,0.422,11.285,1.266s4.699,2.408,6.293,4.693
		c1.594,2.285,2.391,5.068,2.391,8.35c0,2.86-0.61,5.326-1.829,7.4c-1.22,2.074-2.896,3.756-5.03,5.045
		c-1.36,0.821-3.225,1.5-5.593,2.039c1.897,0.634,3.279,1.267,4.146,1.9c0.585,0.422,1.434,1.326,2.547,2.71
		s1.856,2.452,2.231,3.202l7.712,14.935h-17.995l-8.513-15.75c-1.078-2.039-2.039-3.363-2.883-3.973
		c-1.148-0.796-2.449-1.195-3.902-1.195h-1.406v20.918H157.513z M173.509,124.337h6.715c0.726,0,2.132-0.234,4.219-0.703
		c1.055-0.211,1.916-0.75,2.584-1.617c0.668-0.867,1.002-1.863,1.002-2.988c0-1.664-0.527-2.941-1.582-3.832
		c-1.055-0.891-3.036-1.336-5.941-1.336h-6.996V124.337z"/>
	<path fill="#F9F9F9" d="M244.991,146.486h-18.081l-2.512,8.508h-16.261l19.371-51.54h17.372l19.367,51.54H247.57L244.991,146.486z
		 M241.688,135.341l-5.689-18.527l-5.629,18.527H241.688z"/>
	<path fill="#F9F9F9" d="M293.919,136.326v-10.723h24.609v21.973c-4.711,3.211-8.877,5.396-12.498,6.557s-7.916,1.74-12.885,1.74
		c-6.117,0-11.104-1.043-14.959-3.129c-3.855-2.086-6.844-5.191-8.965-9.316c-2.122-4.125-3.182-8.86-3.182-14.204
		c0-5.625,1.16-10.517,3.48-14.678c2.32-4.16,5.718-7.318,10.195-9.475c3.492-1.664,8.191-2.496,14.098-2.496
		c5.695,0,9.954,0.516,12.779,1.547c2.824,1.032,5.168,2.631,7.031,4.799c1.863,2.168,3.264,4.917,4.201,8.244l-15.363,2.742
		c-0.633-1.945-1.705-3.433-3.217-4.465c-1.512-1.031-3.44-1.547-5.783-1.547c-3.493,0-6.275,1.213-8.35,3.639
		s-3.111,6.264-3.111,11.514c0,5.578,1.049,9.563,3.146,11.953c2.097,2.391,5.021,3.586,8.771,3.586c1.78,0,3.48-0.258,5.098-0.773
		s3.468-1.395,5.555-2.637v-4.852H293.919z"/>
	<path fill="#F9F9F9" d="M327.95,103.455h42.68v11.004h-26.719v8.191h24.785v10.512h-24.785v10.161h27.492v11.672H327.95V103.455z"
		/>
</g>
<g>
	<path fill="#55AF29" d="M227.433,81.628h17.19v4.432h-10.762v3.299h9.983v4.234h-9.983v4.092h11.073v4.701h-17.502V81.628z"/>
	<path fill="#55AF29" d="M262.21,93.891l5.622,1.699c-0.377,1.577-0.972,2.894-1.784,3.951s-1.82,1.855-3.023,2.393
		c-1.204,0.538-2.735,0.807-4.595,0.807c-2.256,0-4.099-0.328-5.53-0.983c-1.43-0.656-2.664-1.809-3.703-3.46
		c-1.039-1.651-1.558-3.764-1.558-6.34c0-3.434,0.914-6.073,2.74-7.917c1.827-1.844,4.411-2.767,7.753-2.767
		c2.615,0,4.67,0.529,6.167,1.586c1.496,1.057,2.607,2.681,3.334,4.871l-5.664,1.26c-0.198-0.632-0.406-1.095-0.623-1.388
		c-0.359-0.491-0.798-0.869-1.317-1.133s-1.1-0.396-1.742-0.396c-1.454,0-2.568,0.585-3.342,1.754
		c-0.585,0.868-0.878,2.23-0.878,4.087c0,2.301,0.349,3.877,1.048,4.731c0.699,0.853,1.68,1.28,2.945,1.28
		c1.227,0,2.155-0.345,2.783-1.034C261.471,96.204,261.927,95.203,262.21,93.891z"/>
	<path fill="#55AF29" d="M270.14,92.022c0-3.389,0.944-6.027,2.832-7.916s4.517-2.832,7.887-2.832c3.456,0,6.118,0.928,7.987,2.782
		c1.869,1.855,2.803,4.454,2.803,7.795c0,2.426-0.408,4.416-1.225,5.968c-0.816,1.553-1.996,2.762-3.54,3.625
		c-1.543,0.864-3.467,1.296-5.77,1.296c-2.341,0-4.279-0.373-5.813-1.119c-1.534-0.746-2.777-1.926-3.731-3.54
		S270.14,94.448,270.14,92.022z M276.554,92.05c0,2.096,0.389,3.602,1.168,4.517c0.778,0.916,1.838,1.374,3.179,1.374
		c1.378,0,2.445-0.448,3.2-1.345c0.756-0.897,1.133-2.506,1.133-4.829c0-1.954-0.395-3.382-1.183-4.284
		c-0.788-0.901-1.857-1.352-3.207-1.352c-1.293,0-2.332,0.458-3.115,1.374S276.554,89.936,276.554,92.05z"/>
	<path fill="#55AF29" d="M295.146,81.628h5.99l7.816,11.485V81.628h6.046v20.759h-6.046l-7.774-11.398v11.398h-6.032V81.628z"/>
	<path fill="#55AF29" d="M318.454,92.022c0-3.389,0.944-6.027,2.832-7.916s4.517-2.832,7.888-2.832c3.455,0,6.117,0.928,7.986,2.782
		c1.869,1.855,2.803,4.454,2.803,7.795c0,2.426-0.408,4.416-1.225,5.968c-0.816,1.553-1.996,2.762-3.54,3.625
		c-1.543,0.864-3.467,1.296-5.771,1.296c-2.341,0-4.278-0.373-5.813-1.119c-1.533-0.746-2.777-1.926-3.73-3.54
		C318.931,96.468,318.454,94.448,318.454,92.022z M324.869,92.05c0,2.096,0.389,3.602,1.168,4.517
		c0.778,0.916,1.838,1.374,3.179,1.374c1.378,0,2.444-0.448,3.2-1.345s1.133-2.506,1.133-4.829c0-1.954-0.395-3.382-1.183-4.284
		c-0.788-0.901-1.856-1.352-3.207-1.352c-1.294,0-2.331,0.458-3.115,1.374S324.869,89.936,324.869,92.05z"/>
	<path fill="#55AF29" d="M343.348,81.628h8.436l3.254,12.631l3.23-12.631h8.43v20.759h-5.253V86.556l-4.048,15.831h-4.755
		l-4.04-15.831v15.831h-5.254V81.628z"/>
	<path fill="#55AF29" d="M368.694,81.628h7.125l4.183,7.003l4.19-7.003h7.087l-8.07,12.064v8.694h-6.43v-8.694L368.694,81.628z"/>
</g>
<g>
	<ellipse fill="#F4C041" cx="281.272" cy="91.858" rx="12.047" ry="11.338"/>
	<path fill="#CC8D13" d="M281.274,81.914c-5.836,0-10.566,4.453-10.566,9.945c0,5.491,4.73,9.943,10.566,9.943
		c5.833,0,10.565-4.452,10.565-9.943C291.839,86.366,287.107,81.914,281.274,81.914z M281.274,100.774
		c-5.233,0-9.475-3.992-9.475-8.916c0-4.926,4.241-8.917,9.475-8.917c5.233,0,9.474,3.992,9.474,8.917
		C290.748,96.783,286.507,100.774,281.274,100.774z"/>
	<g>
		<g>
			<path fill="#CC8D13" d="M280.687,98.54v-1.645c-1.004-0.016-2.042-0.309-2.646-0.715l0.414-1.091c0.623,0.39,1.521,0.7,2.491,0.7
				c1.229,0,2.058-0.668,2.058-1.596c0-0.894-0.675-1.449-1.955-1.937c-1.762-0.652-2.851-1.399-2.851-2.815
				c0-1.352,1.019-2.376,2.61-2.621v-1.644h1.073v1.578c1.038,0.033,1.746,0.293,2.247,0.569l-0.431,1.075
				c-0.363-0.195-1.073-0.554-2.18-0.554c-1.331,0-1.832,0.749-1.832,1.4c0,0.846,0.64,1.27,2.145,1.855
				c1.781,0.683,2.679,1.529,2.679,2.978c0,1.287-0.949,2.491-2.731,2.768v1.693H280.687z"/>
		</g>
	</g>
</g>
<g>
	<ellipse fill="#F4C041" cx="329.439" cy="91.859" rx="12.047" ry="11.338"/>
	<path fill="#CC8D13" d="M329.44,81.914c-5.836,0-10.566,4.453-10.566,9.945c0,5.491,4.73,9.943,10.566,9.943
		c5.834,0,10.565-4.452,10.565-9.943C340.006,86.367,335.274,81.914,329.44,81.914z M329.44,100.775
		c-5.233,0-9.475-3.992-9.475-8.916c0-4.926,4.241-8.917,9.475-8.917s9.475,3.992,9.475,8.917
		C338.915,96.783,334.674,100.775,329.44,100.775z"/>
	<g>
		<g>
			<path fill="#CC8D13" d="M328.853,98.54v-1.645c-1.004-0.016-2.041-0.309-2.646-0.715l0.414-1.091c0.623,0.39,1.521,0.7,2.491,0.7
				c1.229,0,2.058-0.668,2.058-1.596c0-0.894-0.675-1.449-1.955-1.937c-1.762-0.652-2.851-1.399-2.851-2.815
				c0-1.352,1.019-2.376,2.61-2.621v-1.644h1.072v1.578c1.038,0.033,1.746,0.293,2.247,0.569l-0.432,1.075
				c-0.363-0.195-1.073-0.554-2.181-0.554c-1.33,0-1.832,0.749-1.832,1.4c0,0.846,0.641,1.27,2.145,1.855
				c1.781,0.683,2.68,1.529,2.68,2.978c0,1.287-0.949,2.491-2.731,2.768v1.693H328.853z"/>
		</g>
	</g>
</g>
</svg>
